<svg xmlns="http://www.w3.org/2000/svg" fill="none" viewBox="0 0 240 120"><path fill="#e9d5ff" d="M72 120h96V84c0-26.51-21.49-48-48-48S72 57.49 72 84v36z"/><path fill="#8265CE" d="M152 48.062c0-11.223 0-16.834 2.184-21.12a20.04 20.04 0 0 1 8.757-8.758C167.228 16 172.839 16 184.061 16h23.877c11.223 0 16.834 0 21.121 2.184a20.04 20.04 0 0 1 8.757 8.757C240 31.228 240 36.84 240 48.061V71.94c0 11.222 0 16.833-2.184 21.12a20.04 20.04 0 0 1-8.757 8.757C224.772 104 219.161 104 207.939 104h-23.877c-11.223 0-16.834 0-21.121-2.184a20.04 20.04 0 0 1-8.757-8.757C152 88.772 152 83.16 152 71.939V48.062z"/><path fill="#fff" d="M226 60c0 16.569-13.431 30-30 30-16.569 0-30-13.431-30-30 0-16.569 13.431-30 30-30 16.569 0 30 13.431 30 30z"/><path fill="#8265CE" d="M186.221 55.04c0-1.552 0-2.328.315-2.92a2.825 2.825 0 0 1 1.26-1.211c.617-.302 1.424-.302 3.04-.302h10.327c1.615 0 2.423 0 3.039.302.543.266.984.69 1.261 1.21.314.593.314 1.369.314 2.92v9.922c0 1.551 0 2.327-.314 2.92a2.832 2.832 0 0 1-1.261 1.21c-.616.302-1.424.302-3.039.302h-10.327c-1.616 0-2.423 0-3.04-.302a2.825 2.825 0 0 1-1.26-1.21c-.315-.593-.315-1.369-.315-2.92V55.04zM0 48.062c0-11.223 0-16.834 2.184-21.12a20.038 20.038 0 0 1 8.757-8.758C15.228 16 20.84 16 32.061 16h23.877c11.223 0 16.834 0 21.12 2.184a20.038 20.038 0 0 1 8.758 8.757C88 31.228 88 36.84 88 48.061V71.94c0 11.222 0 16.833-2.184 21.12a20.038 20.038 0 0 1-8.757 8.757C72.772 104 67.16 104 55.939 104H32.061c-11.223 0-16.834 0-21.12-2.184a20.039 20.039 0 0 1-8.758-8.757C0 88.772 0 83.16 0 71.939V48.062z"/><path fill="#fff" d="M43.994 71.915c-6.279 0-11.364-5.133-11.364-11.47 0-6.337 5.085-11.47 11.364-11.47 5.625 0 10.293 4.139 11.193 9.558h11.448c-.965-11.775-10.729-21.027-22.641-21.027-12.548 0-22.727 10.275-22.727 22.939s10.18 22.94 22.727 22.94c11.912 0 21.676-9.253 22.641-21.028H55.187c-.9 5.419-5.568 9.558-11.193 9.558z"/><path fill="#f5d0fe" d="M96 0h48v60c0 13.255-10.745 24-24 24S96 73.255 96 60V0z"/><path fill="#8265CE" d="M144 42.422V60c0 13.255-10.745 24-24 24S96 73.255 96 60V42.422A47.78 47.78 0 0 1 120 36a47.78 47.78 0 0 1 24 6.422z"/><path fill="#fff" d="M136 60c0 8.837-7.163 16-16 16s-16-7.163-16-16 7.163-16 16-16 16 7.163 16 16z"/><path fill="#0A0B0D" fill-rule="evenodd" d="M110 60a5 5 0 0 1 5-5h4v2h-4a3 3 0 1 0 0 6h4v2h-4a5 5 0 0 1-5-5zm20 0a5 5 0 0 0-5-5h-4v2h4a3 3 0 1 1 0 6h-4v2h4a5 5 0 0 0 5-5z" clip-rule="evenodd"/><path fill="#0A0B0D" fill-rule="evenodd" d="M125 61h-10v-2h10v2z" clip-rule="evenodd"/></svg>